# xmcd
#
# Track frame offsets:
#	150
#	11795
#	24855
#	38927
#	52085
#	67250
#	80032
#	94355
#	108170
#	123197
#
# Disc length: 1812 seconds
#
# Revision: 0
# Processed by: cddbd v1.4PL0 Copyright (c) Steve Scherf et al.
# Submitted via: dBpowerAMP V4.0
#
DISCID=8507120a
DTITLE=Varios - El Sonido Romanticos De Los 20 Super Grpos
DYEAR=1900
DGENRE=Romanticas
TTITLE0=Los Yaki - Cenizas
TTITLE1=Los Johnny Jets - Por Fin
TTITLE2=Los Chicanos - A La Orilla Del Mar
TTITLE3=Los Freddy's - Y Me Enamore
TTITLE4=La Tropa Loca - Engano
TTITLE5=Los Baby's - Me Piden
TTITLE6=Los Brios - Yo Se Que Te Acordaras
TTITLE7=Los STRWCK- Quien
TTITLE8=Los Barbaros - Pecado Mortal
TTITLE9=Grupo Alpha - Juguete Caro
EXTD=Fonovisa Records  My name is Luis
EXTT0=
EXTT1=
EXTT2=
EXTT3=
EXTT4=
EXTT5=
EXTT6=
EXTT7=
EXTT8=
EXTT9=
PLAYORDER=
